<?xml version="1.0" encoding="UTF-8" standalone="no"?>
<!DOCTYPE svg PUBLIC "-//W3C//DTD SVG 1.1//EN" "http://www.w3.org/Graphics/SVG/1.1/DTD/svg11.dtd">
<svg version="1.1" xmlns="http://www.w3.org/2000/svg" xmlns:xlink="http://www.w3.org/1999/xlink" preserveAspectRatio="xMidYMid meet" viewBox="63 59 516 516" width="512" height="512"><defs><path d="M320 60C178.6 60 64 174.6 64 316C64 457.4 178.6 572 320 572C321.5 572 323 572 324.5 571.9C324.5 558.62 324.5 492.22 324.5 372.7L269.5 372.7L269.5 308.6L324.5 308.6C324.5 280.28 324.5 264.55 324.5 261.4C324.5 206.7 357.9 176.9 406.7 176.9C430.1 176.9 450.2 178.6 456 179.4C456 183.21 456 202.28 456 236.6C435.84 236.6 424.64 236.6 422.4 236.6C395.9 236.6 390.7 249.2 390.7 267.7C390.7 270.42 390.7 284.02 390.7 308.5L454.2 308.5L445.9 372.6L390.7 372.6C390.7 486.3 390.7 549.47 390.7 562.1C497.7 531.4 576 432.9 576 316C576 174.6 461.4 60 320 60Z" id="cvba2geGf"></path></defs><g><g><use xlink:href="#cvba2geGf" opacity="1" fill="#2196f3" fill-opacity="1"></use><g><use xlink:href="#cvba2geGf" opacity="1" fill-opacity="0" stroke="#000000" stroke-width="1" stroke-opacity="0"></use></g></g></g></svg>